<?xml version="1.0" encoding="UTF-8" standalone="no"?>

<svg version="1.1" baseProfile="full" xmlns="http://www.w3.org/2000/svg" width="640" height="300">
  <defs>
    <linearGradient id="Gradient1" x1=".2" x2=".6" y1="0" y2="1" >
      <stop class="stop1" offset="10%" stop-color="#000000"/>
      <stop class="stop2" offset="100%" stop-color="#1f7aaa"/>
    </linearGradient>

    <filter id="drop-shadow-large">
     <feGaussianBlur in="SourceAlpha" stdDeviation="4" result="blur" />
     <feOffset in="blur" dx="2" dy="2" result="offsetBlur"/>
      <feMerge>
          <feMergeNode in="offsetBlur"/>
          <feMergeNode in="SourceGraphic"/>
      </feMerge>
    </filter>

    <filter id="drop-shadow-emboss">

      <feGaussianBlur in="SourceAlpha" stdDeviation="2" result="blur" />
      <feOffset in="blur" dx="2" dy="2" result="blur" />

      <feGaussianBlur in="SourceAlpha" stdDeviation="3" result="specblur" />

      <feSpecularLighting in="specblur" surfaceScale="2" lighting-color="white" specularConstant="2" specularExponent="16" result="specularOutput" kernelUnitLength="1" >
        <feDistantLight azimuth="-120" elevation="3" />
      </feSpecularLighting>

      <feComposite in="specularOutput" in2="SourceGraphic" operator="in" result="specularOutput" />
      <feComposite in="specularOutput" in2="SourceGraphic" operator="arithmetic" k1="0" k2=".3" k3="1" k4="0" result="specularOutput" />

      <feMerge>
          <feMergeNode in="blur"/>
          <feMergeNode in="SourceGraphic"/>
          <feMergeNode in="specularOutput"/>

      </feMerge>
    </filter>
    
  </defs>

  <path filter="url(#drop-shadow-large)" style="fill:#015987;" d="m 11.122691,273.67186 c 6.11748,-6.1875 19.199027,-20.925 29.070097,-32.75 45.32219,-54.29347 71.629862,-81.65731 101.531432,-105.60758 42.87421,-34.34098 86.87266,-54.665769 134.45907,-62.112469 13.81603,-2.16204 51.97769,-2.41899 67.54093,-0.45476 82.61616,10.42693 149.89713,51.044659 216.14147,130.485279 5.59057,6.70424 19.38858,24.07379 30.66224,38.59899 11.27367,14.5252 24.65439,29.716 28.59771,34.75 l 8.10014,8.34054 -313.61289,0 -313.61289,0 z" />
  <path style="fill:rgba(161, 218, 248, .86);" d="m 45.827538,282.8753 c 32.21819,-5.10851 63.139592,-12.54632 126.997012,-30.54779 80.30451,-22.63791 117.40985,-30.93935 161.14352,-36.05201 23.52793,-2.75053 73.53756,-2.49648 95.53271,0.48531 46.70015,6.33092 81.93783,18.10041 135.96729,45.41347 17.325,8.75816 35.1,17.45136 39.5,19.31821 l 8,3.39428 -289.5,-0.0655 C 36.448018,284.75637 34.069658,284.73967 45.827538,282.87532 z" />
  <path style="fill:rgba(37, 157, 220, .79);" d="m 20.740926,280.11188 c 11.961262,-5.79906 21.753052,-12.24166 46.889572,-30.85142 47.405622,-35.09667 78.517222,-50.03755 119.391922,-57.3362 16.57347,-2.95938 42.94512,-3.65458 58.84394,-1.55121 27.39857,3.62475 49.51397,10.69505 112.87457,36.08604 94.88574,38.0243 132.05899,48.17089 212,57.86622 1.65001,0.20012 -123.675,0.4248 -278.5,0.4993 l -281.499994,0.13546 9.99999,-4.84819 z" />
  <path filter="url(#drop-shadow-emboss)" fill="url(#Gradient1)" d="m 175.71571,277.21086 c -0.79376,-1.546 -5.50542,-13.61091 -10.47036,-26.81091 C 149.01197,207.24121 80.213718,20.929061 79.299298,17.649941 c -0.45167,-1.6197 0.84574,-1.75 17.42468,-1.75 l 17.912682,0 4.84951,22.25 c 9.59434,44.01967 21.26198,85.027849 31.61364,111.112209 6.50396,16.38883 10.94123,24.92356 16.83347,32.37781 13.2161,16.71961 24.89077,7.54333 44.83465,-35.24001 3.33305,-7.15 8.18002,-17.725 10.77106,-23.5 8.15793,-18.1827 20.156,-41.144239 26.61579,-50.936449 3.4238,-5.19004 9.59327,-12.96188 13.70994,-17.27075 19.781,-20.70454 42.02697,-20.80835 62.75097,-0.29281 18.45723,18.27158 30.32535,42.727409 50.47224,104.004769 13.66561,41.56436 16.66677,48.49524 20.99904,48.49524 5.24334,0 7.20218,-10.19336 14.01966,-72.95517 10.63041,-97.863609 24.27058,-130.1765922 55.6663,-131.8711221 9.60005,-0.51814 14.72415,1.4097299 26.4632,9.9563931 30.48935,22.19789 40.20495,26.8351 62.64933,29.90227 9.22697,1.26093 30.64318,0.8703 34.55355,-0.63025 1.18496,-0.45471 1.73578,-0.31951 1.492,0.36621 -0.21255,0.59788 -5.334,3.61966 -11.381,6.71508 -40.76239,20.86596 -76.61568,48.396649 -105.0633,80.675039 -32.98065,37.42183 -55.86052,77.6196 -75.43964,132.54029 -5.48863,15.39599 -7.14128,18.30126 -10.41055,18.30126 -4.3008,0 -5.80974,-3.86706 -15.60812,-40 -17.01899,-62.76 -31.24881,-99.84397 -48.29505,-125.86046 -10.82759,-16.52542 -24.7587,-29.465659 -34.56455,-32.106089 -22.86347,-6.1565 -56.48446,50.070599 -96.54891,161.466549 -13.69995,38.09161 -12.77045,35.95598 -15.80383,36.31091 -2.06616,0.24175 -2.97814,-0.31428 -4.10035,-2.5 z" />
</svg>
