<svg baseProfile="full" xmlns="http://www.w3.org/2000/svg" width="640" height="300"><defs><linearGradient id="c" x1=".2" x2=".6" y2="1"><stop class="stop1" offset="10%"/><stop class="stop2" offset="100%" stop-color="#1f7aaa"/></linearGradient><filter id="a"><feGaussianBlur in="SourceAlpha" stdDeviation="4" result="blur"/><feOffset in="blur" dx="2" dy="2" result="offsetBlur"/><feMerge><feMergeNode in="offsetBlur"/><feMergeNode in="SourceGraphic"/></feMerge></filter><filter id="b"><feGaussianBlur in="SourceAlpha" stdDeviation="2" result="blur"/><feOffset in="blur" dx="2" dy="2" result="blur"/><feGaussianBlur in="SourceAlpha" stdDeviation="3" result="specblur"/><feSpecularLighting in="specblur" surfaceScale="2" lighting-color="#fff" specularConstant="2" specularExponent="16" result="specularOutput" kernelUnitLength="1"><feDistantLight azimuth="-120" elevation="3"/></feSpecularLighting><feComposite in="specularOutput" in2="SourceGraphic" operator="in" result="specularOutput"/><feComposite in="specularOutput" in2="SourceGraphic" operator="arithmetic" k2=".3" k3="1" result="specularOutput"/><feMerge><feMergeNode in="blur"/><feMergeNode in="SourceGraphic"/><feMergeNode in="specularOutput"/></feMerge></filter></defs><path filter="url(#a)" d="M11.123 273.672c6.117-6.188 19.199-20.925 29.07-32.75 45.322-54.293 71.63-81.657 101.531-105.608 42.874-34.341 86.873-54.666 134.459-62.112 13.816-2.162 51.978-2.419 67.541-.455 82.616 10.427 149.897 51.045 216.141 130.485 5.591 6.704 19.389 24.074 30.662 38.599 11.274 14.525 24.654 29.716 28.598 34.75l8.1 8.341h-627.226z" fill="#015987"/><path d="M45.828 282.875c32.218-5.109 63.14-12.546 126.997-30.548 80.305-22.638 117.41-30.939 161.144-36.052 23.528-2.751 73.538-2.496 95.533.485 46.7 6.331 81.938 18.1 135.967 45.413 17.325 8.758 35.1 17.451 39.5 19.318l8 3.394-289.5-.066c-287.02-.065-289.398-.082-277.641-1.946z" fill="rgba(161, 218, 248, .86)"/><path d="M20.741 280.112c11.961-5.799 21.753-12.242 46.89-30.851 47.406-35.097 78.517-50.038 119.392-57.336 16.573-2.959 42.945-3.655 58.844-1.551 27.399 3.625 49.514 10.695 112.875 36.086 94.886 38.024 132.059 48.171 212 57.866 1.65.2-123.675.425-278.5.499l-281.5.135 10-4.848z" fill="rgba(37, 157, 220, .79)"/><path filter="url(#b)" fill="url(#c)" d="M175.716 277.211c-.794-1.546-5.505-13.611-10.47-26.811-16.233-43.159-85.032-229.471-85.946-232.75-.452-1.62.846-1.75 17.425-1.75h17.913l4.85 22.25c9.594 44.02 21.262 85.028 31.614 111.112 6.504 16.389 10.941 24.924 16.833 32.378 13.216 16.72 24.891 7.543 44.835-35.24 3.333-7.15 8.18-17.725 10.771-23.5 8.158-18.183 20.156-41.144 26.616-50.936 3.424-5.19 9.593-12.962 13.71-17.271 19.781-20.705 42.027-20.808 62.751-.293 18.457 18.272 30.325 42.727 50.472 104.005 13.666 41.564 16.667 48.495 20.999 48.495 5.243 0 7.202-10.193 14.02-72.955 10.63-97.864 24.271-130.177 55.666-131.871 9.6-.518 14.724 1.41 26.463 9.956 30.489 22.198 40.205 26.835 62.649 29.902 9.227 1.261 30.643.87 34.554-.63 1.185-.455 1.736-.32 1.492.366-.213.598-5.334 3.62-11.381 6.715-40.762 20.866-76.616 48.397-105.063 80.675-32.981 37.422-55.861 77.62-75.44 132.54-5.489 15.396-7.141 18.301-10.411 18.301-4.301 0-5.81-3.867-15.608-40-17.019-62.76-31.249-99.844-48.295-125.86-10.828-16.525-24.759-29.466-34.565-32.106-22.863-6.157-56.484 50.071-96.549 161.467-13.7 38.092-12.77 35.956-15.804 36.311-2.066.242-2.978-.314-4.1-2.5z"/></svg>